<svg width="31" height="30" viewBox="0 0 31 30" fill="none" xmlns="http://www.w3.org/2000/svg">
<path d="M26.9194 8H25.1111V3.91667C25.1111 2.309 23.7597 1 22.0972 1H8.83611C7.17365 1 5.82222 2.309 5.82222 3.91667V8H4.01389C2.35143 8 1 9.309 1 10.9167V29H29.9333V10.9167C29.9333 9.309 28.5819 8 26.9194 8ZM2.20556 27.8333V10.9167C2.20556 9.95183 3.01689 9.16667 4.01389 9.16667H5.82222V27.8333H2.20556ZM23.9056 27.8333H7.02778V3.91667C7.02778 2.95183 7.83912 2.16667 8.83611 2.16667H22.0972C23.0942 2.16667 23.9056 2.95183 23.9056 3.91667V27.8333ZM28.7278 27.8333H25.1111V9.16667H26.9194C27.9164 9.16667 28.7278 9.95183 28.7278 10.9167V27.8333ZM10.6444 17.3333H14.2611V18.5H10.6444V17.3333ZM16.6722 17.3333H20.2889V18.5H16.6722V17.3333ZM10.6444 22H14.2611V23.1667H10.6444V22ZM16.6722 22H20.2889V23.1667H16.6722V22ZM16.0694 9.75V12.6667H14.8639V9.75H11.85V8.58333H14.8639V5.66667H16.0694V8.58333H19.0833V9.75H16.0694Z" fill="#344054" stroke="#344054" stroke-width="0.5"/>
</svg>
