<svg width="26" height="25" viewBox="0 0 26 25" fill="none" xmlns="http://www.w3.org/2000/svg">
<path d="M20.5 7.5H5.5C3.019 7.5 1 9.519 1 12V20C1 22.481 3.019 24.5 5.5 24.5H20.5C22.981 24.5 25 22.481 25 20V12C25 9.519 22.981 7.5 20.5 7.5ZM11 23.5H6V21C6 19.622 7.121 18.5 8.5 18.5C9.879 18.5 11 19.622 11 21V23.5ZM20 23.5H15V21C15 19.622 16.121 18.5 17.5 18.5C18.879 18.5 20 19.622 20 21V23.5ZM24 20C24 21.76 22.694 23.221 21 23.464V21C21 19.07 19.43 17.5 17.5 17.5C15.57 17.5 14 19.07 14 21V23.5H12V21C12 19.07 10.43 17.5 8.5 17.5C6.57 17.5 5 19.07 5 21V23.464C3.306 23.221 2 21.76 2 20V12C2 10.07 3.57 8.5 5.5 8.5H20.5C22.43 8.5 24 10.07 24 12V20ZM8.5 10.5C7.121 10.5 6 11.622 6 13C6 14.378 7.121 15.5 8.5 15.5C9.879 15.5 11 14.378 11 13C11 11.622 9.879 10.5 8.5 10.5ZM8.5 14.5C7.673 14.5 7 13.827 7 13C7 12.173 7.673 11.5 8.5 11.5C9.327 11.5 10 12.173 10 13C10 13.827 9.327 14.5 8.5 14.5ZM17.5 10.5C16.121 10.5 15 11.622 15 13C15 14.378 16.121 15.5 17.5 15.5C18.879 15.5 20 14.378 20 13C20 11.622 18.879 10.5 17.5 10.5ZM17.5 14.5C16.673 14.5 16 13.827 16 13C16 12.173 16.673 11.5 17.5 11.5C18.327 11.5 19 12.173 19 13C19 13.827 18.327 14.5 17.5 14.5ZM6.05 5.5H10.95C11.468 5.5 11.929 5.191 12.128 4.713C12.327 4.235 12.218 3.69 11.852 3.324L9.401 0.874C8.905 0.377 8.094 0.377 7.598 0.874L5.148 3.324C4.782 3.69 4.673 4.235 4.872 4.713C5.071 5.191 5.532 5.5 6.05 5.5ZM5.856 4.031L8.306 1.581C8.36 1.527 8.43 1.501 8.5 1.501C8.57 1.501 8.641 1.527 8.694 1.581L11.144 4.031C11.261 4.148 11.225 4.28 11.204 4.331C11.183 4.382 11.116 4.5 10.95 4.5H6.05C5.884 4.5 5.818 4.381 5.796 4.331C5.775 4.28 5.738 4.148 5.856 4.031ZM16.599 5.127C16.847 5.376 17.174 5.5 17.5 5.5C17.826 5.5 18.153 5.375 18.401 5.127L20.851 2.676C21.217 2.311 21.326 1.765 21.127 1.287C20.93 0.809 20.467 0.5 19.949 0.5H15.049C14.531 0.5 14.069 0.809 13.871 1.287C13.673 1.765 13.781 2.31 14.147 2.676L16.597 5.127H16.599ZM14.796 1.67C14.817 1.619 14.884 1.5 15.05 1.5H19.95C20.116 1.5 20.183 1.619 20.204 1.67C20.225 1.721 20.262 1.852 20.144 1.969L17.694 4.42C17.588 4.528 17.414 4.528 17.305 4.42L14.855 1.969C14.738 1.852 14.775 1.721 14.796 1.67Z" fill="#344054" stroke="#344054" stroke-width="0.4"/>
</svg>
