<svg width="22" height="22" viewBox="0 0 22 22" fill="none" xmlns="http://www.w3.org/2000/svg">
<path d="M17.25 0.967896H12.25C10.7533 0.967896 9.46833 1.8554 8.8675 3.12706C8.40417 2.81706 7.84833 2.63456 7.25 2.63456C5.64167 2.63456 4.33333 3.9429 4.33333 5.55123C4.33333 6.0004 4.44417 6.42123 4.62583 6.80123H2.66667V1.80123C2.66667 1.34123 2.29333 0.967896 1.83333 0.967896C1.37333 0.967896 1 1.34123 1 1.80123V20.1346C1 20.5946 1.37333 20.9679 1.83333 20.9679C2.29333 20.9679 2.66667 20.5946 2.66667 20.1346V18.4679H19.3333V20.1346C19.3333 20.5946 19.7067 20.9679 20.1667 20.9679C20.6267 20.9679 21 20.5946 21 20.1346V4.7179C21 2.6504 19.3175 0.967896 17.25 0.967896ZM10.1667 4.7179C10.1667 3.56956 11.1017 2.63456 12.25 2.63456H17.25C18.3983 2.63456 19.3333 3.56956 19.3333 4.7179V6.80123H10.1667V4.7179ZM6 5.55123C6 4.86206 6.56083 4.30123 7.25 4.30123C7.93917 4.30123 8.5 4.86206 8.5 5.55123C8.5 6.2404 7.93917 6.80123 7.25 6.80123C6.56083 6.80123 6 6.2404 6 5.55123ZM2.66667 8.4679H19.3333V10.9679H12.25C10.7533 10.9679 9.46833 11.8554 8.8675 13.1271C8.40417 12.8171 7.84833 12.6346 7.25 12.6346C5.64167 12.6346 4.33333 13.9429 4.33333 15.5512C4.33333 16.0004 4.44417 16.4212 4.62583 16.8012H2.66667V8.4679ZM6 15.5512C6 14.8621 6.56083 14.3012 7.25 14.3012C7.93917 14.3012 8.5 14.8621 8.5 15.5512C8.5 16.2404 7.93917 16.8012 7.25 16.8012C6.56083 16.8012 6 16.2404 6 15.5512ZM10.1667 16.8012V14.7179C10.1667 13.5696 11.1017 12.6346 12.25 12.6346H19.3333V16.8012H10.1667Z" fill="#344054" stroke="white" stroke-width="0.2"/>
</svg>
